<svg width="22" height="22" viewBox="0 0 22 22" fill="none" xmlns="http://www.w3.org/2000/svg">
<path d="M11.8946 2.85423L13.9356 6.95565C14.0859 7.2528 14.3729 7.45915 14.7039 7.50501L19.2882 8.17268C19.5559 8.21028 19.7989 8.35152 19.963 8.56705C20.1253 8.77982 20.195 9.04946 20.1556 9.31451C20.1235 9.53462 20.0199 9.73823 19.8612 9.89414L16.5394 13.1142C16.2965 13.3389 16.1865 13.6718 16.2451 13.9974L17.063 18.5244C17.1501 19.071 16.7879 19.5864 16.2451 19.69C16.0214 19.7258 15.7922 19.6882 15.5905 19.5855L11.5013 17.455C11.1978 17.3018 10.8393 17.3018 10.5358 17.455L6.44661 19.5855C5.94417 19.8524 5.32162 19.6708 5.04198 19.1755C4.93837 18.9783 4.9017 18.7536 4.93562 18.5345L5.75347 14.0066C5.81215 13.6819 5.7012 13.3471 5.45915 13.1224L2.13736 9.90423C1.74219 9.5227 1.73027 8.89446 2.11077 8.49918C2.11902 8.49093 2.12819 8.48176 2.13736 8.47258C2.29506 8.31209 2.50227 8.21028 2.72598 8.18369L7.3103 7.5151C7.64037 7.46832 7.92735 7.2638 8.07863 6.96482L10.0462 2.85423C10.2213 2.50205 10.5844 2.28285 10.9787 2.29203H11.1015C11.4435 2.3333 11.7415 2.54515 11.8946 2.85423Z" fill="#B1CBC6"/>
</svg>
