<svg width="128" height="53" viewBox="0 0 128 53" fill="none" xmlns="http://www.w3.org/2000/svg">
<path d="M0.036 25L2.988 3.724H11.988L14.868 25H0.036ZM0.756 24.352H6.84L7.056 21.544H7.596L7.884 24.352H14.148L11.448 4.372H3.528L0.756 24.352ZM1.116 24.028L3.78 4.696H11.16L13.752 24.028H8.136L7.884 21.22H6.732L6.552 24.028H1.116ZM6.768 18.7H7.884L7.344 8.8L6.768 18.7ZM7.092 18.376L7.344 14.524L7.596 18.376H7.092ZM15.2303 24.964V7.18H21.2423L21.3503 7.828C21.6863 7.564 22.0703 7.36 22.5023 7.216C22.9583 7.048 23.4743 6.964 24.0503 6.964C24.6743 6.964 25.2503 7.06 25.7783 7.252C26.3303 7.444 26.7863 7.744 27.1463 8.152C27.5303 7.768 27.9743 7.48 28.4783 7.288C29.0063 7.072 29.6183 6.964 30.3143 6.964C31.7063 6.964 32.7383 7.372 33.4102 8.188C34.1063 9.004 34.4543 10.312 34.4543 12.112V24.964H15.2303ZM15.8783 24.316H21.4943V11.68H21.7463C21.8423 11.68 21.9143 11.716 21.9623 11.788C22.0103 11.86 22.0343 12.028 22.0343 12.292V24.316H27.6503V11.68H27.9023C27.9983 11.68 28.0703 11.716 28.1183 11.788C28.1663 11.86 28.1903 12.028 28.1903 12.292V24.316H33.8063V12.112C33.8063 10.48 33.5063 9.328 32.9062 8.656C32.3303 7.96 31.3463 7.612 29.9543 7.612C29.3783 7.612 28.8383 7.768 28.3343 8.08C27.8303 8.368 27.4343 8.752 27.1463 9.232C26.5463 8.152 25.4303 7.612 23.7983 7.612C22.5983 7.612 21.6503 8.152 20.9543 9.232L20.7023 7.828H15.8783V24.316ZM16.1663 24.028V8.116H20.4503L20.8463 10.204C21.0383 9.532 21.3983 8.98 21.9263 8.548C22.4783 8.116 23.1023 7.9 23.7983 7.9C24.7823 7.9 25.5263 8.068 26.0303 8.404C26.5343 8.74 26.8943 9.244 27.1103 9.916C27.3263 9.34 27.6863 8.86 28.1903 8.476C28.7183 8.092 29.3063 7.9 29.9543 7.9C31.3703 7.9 32.3183 8.26 32.7983 8.98C33.2783 9.676 33.5183 10.72 33.5183 12.112V24.028H28.4783V12.292C28.4783 11.692 28.2863 11.392 27.9023 11.392C27.8303 11.392 27.7343 11.404 27.6143 11.428C27.5183 11.428 27.4343 11.452 27.3623 11.5V24.028H22.3223V12.292C22.3223 11.692 22.1303 11.392 21.7463 11.392C21.6743 11.392 21.5783 11.404 21.4583 11.428C21.3623 11.428 21.2783 11.452 21.2063 11.5V24.028H16.1663ZM41.1792 25.396C39.7392 25.396 38.5632 25.228 37.6512 24.892C36.7392 24.532 36.0552 23.872 35.5992 22.912C35.1672 21.952 34.9512 20.536 34.9512 18.664V12.004C34.9512 10.06 35.4912 8.716 36.5712 7.972C37.6512 7.228 39.1872 6.856 41.1792 6.856C43.1712 6.856 44.7072 7.228 45.7872 7.972C46.8672 8.716 47.4072 10.06 47.4072 12.004V18.664C47.4072 20.536 47.1792 21.952 46.7232 22.912C46.2672 23.872 45.5832 24.532 44.6712 24.892C43.7592 25.228 42.5952 25.396 41.1792 25.396ZM41.1792 24.748C42.4752 24.748 43.5312 24.592 44.3472 24.28C45.1872 23.968 45.7992 23.38 46.1832 22.516C46.5912 21.628 46.7952 20.344 46.7952 18.664V17.656H41.3952V20.86C41.3952 21.124 41.3712 21.304 41.3232 21.4C41.2992 21.472 41.2512 21.508 41.1792 21.508C41.0352 21.508 40.9632 21.292 40.9632 20.86V16.828H46.7952V12.004C46.7952 10.276 46.3032 9.1 45.3192 8.476C44.3592 7.828 42.9792 7.504 41.1792 7.504C39.3792 7.504 37.9872 7.828 37.0032 8.476C36.0432 9.1 35.5632 10.276 35.5632 12.004V18.664C35.5632 20.344 35.7552 21.628 36.1392 22.516C36.5472 23.38 37.1712 23.968 38.0112 24.28C38.8512 24.592 39.9072 24.748 41.1792 24.748ZM41.1792 24.424C39.9552 24.424 38.9472 24.28 38.1552 23.992C37.3632 23.68 36.7752 23.116 36.3912 22.3C36.0312 21.46 35.8512 20.248 35.8512 18.664V12.004C35.8512 10.396 36.3072 9.304 37.2192 8.728C38.1312 8.128 39.4512 7.828 41.1792 7.828C42.8832 7.828 44.1912 8.128 45.1032 8.728C46.0152 9.304 46.4712 10.396 46.4712 12.004V16.504H40.6392V20.86C40.6392 21.244 40.6872 21.508 40.7832 21.652C40.8792 21.772 41.0112 21.832 41.1792 21.832C41.5152 21.832 41.6832 21.508 41.6832 20.86V17.98H46.4712V18.664C46.4712 20.248 46.2792 21.46 45.8952 22.3C45.5352 23.116 44.9592 23.68 44.1672 23.992C43.3992 24.28 42.4032 24.424 41.1792 24.424ZM40.6392 14.344H41.6832V11.284C41.6832 10.684 41.5152 10.384 41.1792 10.384C41.0112 10.384 40.8792 10.444 40.7832 10.564C40.6872 10.684 40.6392 10.924 40.6392 11.284V14.344ZM40.9632 14.02V11.248C40.9632 10.888 41.0352 10.708 41.1792 10.708C41.3232 10.708 41.3952 10.888 41.3952 11.248V14.02H40.9632ZM47.8201 25V7.18H53.5081V8.044C54.0601 7.636 54.6961 7.372 55.4161 7.252C56.1601 7.108 56.9161 7.132 57.6841 7.324V13.084C57.3481 13.012 57.0361 12.952 56.7481 12.904C56.4841 12.832 56.1601 12.796 55.7761 12.796C55.1041 12.796 54.6721 12.964 54.4801 13.3C54.2881 13.612 54.1921 14.2 54.1921 15.064V25H47.8201ZM48.3961 24.352H53.6161V15.064C53.6161 13.912 53.7721 13.144 54.0841 12.76C54.3961 12.352 54.9601 12.148 55.7761 12.148C55.9681 12.148 56.1841 12.16 56.4241 12.184C56.6881 12.208 56.9161 12.244 57.1081 12.292V7.828C56.3161 7.636 55.5601 7.672 54.8401 7.936C54.1201 8.2 53.5561 8.644 53.1481 9.268L52.8961 7.792H48.3961V24.352ZM48.7201 24.028V8.116H52.6441L53.0041 10.168C53.2921 9.328 53.7961 8.728 54.5161 8.368C55.2361 8.008 55.9921 7.912 56.7841 8.08V11.932C56.6161 11.908 56.4481 11.896 56.2801 11.896C56.1121 11.872 55.9441 11.86 55.7761 11.86C54.8641 11.86 54.2281 12.088 53.8681 12.544C53.5081 12.976 53.3281 13.816 53.3281 15.064V24.028H48.7201ZM58.0857 25V7.18H63.7017V25H58.0857ZM58.5897 24.352H63.1977V7.828H58.5897V24.352ZM58.8777 24.028V8.152H62.9097V24.028H58.8777ZM60.8937 5.992C60.1977 5.992 59.5857 5.74 59.0577 5.236C58.5537 4.708 58.3017 4.108 58.3017 3.436C58.3017 2.692 58.5417 2.068 59.0217 1.564C59.5257 1.036 60.1497 0.771999 60.8937 0.771999C61.5897 0.771999 62.1897 1.012 62.6937 1.492C63.2217 1.948 63.4857 2.596 63.4857 3.436C63.4857 4.108 63.2217 4.708 62.6937 5.236C62.1897 5.74 61.5897 5.992 60.8937 5.992ZM60.8937 5.416C61.4457 5.416 61.9137 5.224 62.2977 4.84C62.7057 4.432 62.9097 3.964 62.9097 3.436C62.9097 2.812 62.7057 2.32 62.2977 1.96C61.9137 1.6 61.4457 1.42 60.8937 1.42C60.3177 1.42 59.8377 1.612 59.4537 1.996C59.0697 2.38 58.8777 2.86 58.8777 3.436C58.8777 3.964 59.0697 4.432 59.4537 4.84C59.8377 5.224 60.3177 5.416 60.8937 5.416ZM60.8937 5.128C60.3897 5.128 59.9697 4.948 59.6337 4.588C59.3217 4.228 59.1657 3.844 59.1657 3.436C59.1657 2.98 59.3217 2.584 59.6337 2.248C59.9697 1.888 60.3897 1.708 60.8937 1.708C61.3497 1.708 61.7457 1.888 62.0817 2.248C62.4417 2.584 62.6217 2.98 62.6217 3.436C62.6217 3.844 62.4417 4.228 62.0817 4.588C61.7457 4.948 61.3497 5.128 60.8937 5.128ZM70.4995 25.396C69.0595 25.396 67.8835 25.228 66.9715 24.892C66.0595 24.532 65.3755 23.872 64.9195 22.912C64.4875 21.952 64.2715 20.536 64.2715 18.664V12.004C64.2715 10.06 64.8115 8.716 65.8915 7.972C66.9715 7.228 68.5075 6.856 70.4995 6.856C72.4915 6.856 74.0275 7.228 75.1075 7.972C76.1875 8.716 76.7275 10.06 76.7275 12.004V15.532H70.8955V16.18H76.7275V18.664C76.7275 20.536 76.4995 21.952 76.0435 22.912C75.5875 23.872 74.9035 24.532 73.9915 24.892C73.0795 25.228 71.9155 25.396 70.4995 25.396ZM70.4995 24.748C71.7955 24.748 72.8515 24.592 73.6675 24.28C74.5075 23.968 75.1195 23.38 75.5035 22.516C75.9115 21.628 76.1155 20.344 76.1155 18.664V16.828H70.7155V21.004C70.7155 21.34 70.6435 21.508 70.4995 21.508C70.3555 21.508 70.2835 21.34 70.2835 21.004V11.356C70.2835 10.924 70.3555 10.708 70.4995 10.708C70.6435 10.708 70.7155 10.924 70.7155 11.356V14.884H76.1155V12.004C76.1155 10.276 75.6235 9.1 74.6395 8.476C73.6795 7.828 72.2995 7.504 70.4995 7.504C68.6995 7.504 67.3075 7.828 66.3235 8.476C65.3635 9.1 64.8835 10.276 64.8835 12.004V18.664C64.8835 20.344 65.0755 21.628 65.4595 22.516C65.8675 23.38 66.4915 23.968 67.3315 24.28C68.1715 24.592 69.2275 24.748 70.4995 24.748ZM70.4995 24.424C69.2755 24.424 68.2675 24.28 67.4755 23.992C66.6835 23.68 66.0955 23.116 65.7115 22.3C65.3515 21.46 65.1715 20.248 65.1715 18.664V12.004C65.1715 10.396 65.6275 9.304 66.5395 8.728C67.4515 8.128 68.7715 7.828 70.4995 7.828C72.2035 7.828 73.5115 8.128 74.4235 8.728C75.3355 9.304 75.7915 10.396 75.7915 12.004V14.56H71.0035V11.356C71.0035 10.708 70.8355 10.384 70.4995 10.384C70.1395 10.384 69.9595 10.708 69.9595 11.356V20.86C69.9595 21.508 70.1395 21.832 70.4995 21.832C70.8355 21.832 71.0035 21.508 71.0035 20.86V17.152H75.7915V18.664C75.7915 20.248 75.5995 21.46 75.2155 22.3C74.8555 23.116 74.2795 23.68 73.4875 23.992C72.7195 24.28 71.7235 24.424 70.4995 24.424ZM80.9204 25.216C80.3444 25.216 79.7444 25.132 79.1204 24.964C78.5204 24.796 78.0164 24.424 77.6084 23.848C77.2004 23.272 76.9964 22.372 76.9964 21.148V18.556C76.9964 16.732 77.7884 15.436 79.3724 14.668H77.3204V11.608C77.3204 10 77.7284 8.8 78.5444 8.008C79.3604 7.192 80.8844 6.784 83.1164 6.784C84.6524 6.784 85.8764 6.916 86.7884 7.18C87.7004 7.42 88.3604 7.888 88.7684 8.584C89.1764 9.28 89.3804 10.288 89.3804 11.608V25H82.7564V24.856C82.2524 25.096 81.6404 25.216 80.9204 25.216ZM80.9204 24.568C81.5444 24.568 82.0484 24.484 82.4324 24.316C82.8164 24.148 83.1284 23.92 83.3684 23.632V24.352H88.7684V11.608C88.7684 10.432 88.5884 9.556 88.2284 8.98C87.8684 8.38 87.2684 7.972 86.4284 7.756C85.6124 7.54 84.5084 7.432 83.1164 7.432C81.1484 7.432 79.7924 7.78 79.0484 8.476C78.3044 9.148 77.9324 10.192 77.9324 11.608V14.02H82.3964C82.2524 14.116 82.0484 14.212 81.7844 14.308C81.5444 14.38 81.2684 14.476 80.9564 14.596C80.5004 14.764 80.0084 14.992 79.4804 15.28C78.9524 15.544 78.5084 15.928 78.1484 16.432C77.7884 16.936 77.6084 17.644 77.6084 18.556V21.148C77.6084 22.156 77.7764 22.912 78.1124 23.416C78.4724 23.896 78.9044 24.208 79.4084 24.352C79.9124 24.496 80.4164 24.568 80.9204 24.568ZM80.9204 24.244C80.4644 24.244 80.0084 24.184 79.5524 24.064C79.0964 23.92 78.7124 23.632 78.4004 23.2C78.0884 22.744 77.9324 22.06 77.9324 21.148V18.556C77.9324 17.644 78.1244 16.936 78.5084 16.432C78.9164 15.928 79.4444 15.532 80.0924 15.244C80.7404 14.956 81.4124 14.692 82.1084 14.452C82.7324 14.236 83.1284 13.972 83.2964 13.66C83.4884 13.348 83.5844 12.88 83.5844 12.256V11.248C83.5844 10.984 83.5484 10.78 83.4764 10.636C83.4284 10.468 83.2964 10.384 83.0804 10.384C82.8644 10.384 82.7204 10.492 82.6484 10.708C82.5764 10.924 82.5404 11.236 82.5404 11.644V13.696H78.2204V11.608C78.2204 10.336 78.5684 9.376 79.2644 8.728C79.9604 8.08 81.2444 7.756 83.1164 7.756C84.4364 7.756 85.4804 7.864 86.2484 8.08C87.0404 8.272 87.6044 8.644 87.9404 9.196C88.3004 9.748 88.4804 10.552 88.4804 11.608V24.028H83.6924V22.444C83.5724 22.852 83.2964 23.26 82.8644 23.668C82.4564 24.052 81.8084 24.244 80.9204 24.244ZM82.8644 13.732V11.644C82.8644 11.02 82.9364 10.708 83.0804 10.708C83.2244 10.708 83.2964 10.888 83.2964 11.248V12.256C83.2964 12.952 83.1524 13.444 82.8644 13.732ZM83.0804 21.472C83.3684 21.472 83.5244 21.328 83.5484 21.04C83.5724 20.896 83.5844 20.74 83.5844 20.572C83.5844 20.38 83.5844 20.164 83.5844 19.924V16.108C83.2724 16.3 83.0204 16.552 82.8284 16.864C82.6364 17.152 82.5404 17.548 82.5404 18.052V20.14C82.5404 20.5 82.5644 20.812 82.6124 21.076C82.6604 21.34 82.8164 21.472 83.0804 21.472ZM83.0804 21.148C82.9604 21.148 82.9004 21.04 82.9004 20.824L82.8644 20.14V18.052C82.8644 17.5 83.0084 17.068 83.2964 16.756V20.788C83.2964 21.028 83.2244 21.148 83.0804 21.148ZM89.9724 25V7.144H95.6964L95.8044 7.792C96.5004 7.216 97.3644 6.928 98.3964 6.928C99.9564 6.928 101.012 7.36 101.564 8.224C102.14 9.064 102.428 10.36 102.428 12.112V25H89.9724ZM90.5844 24.352H95.9484V11.752C95.9964 11.728 96.0804 11.716 96.2004 11.716C96.3444 11.716 96.4164 11.836 96.4164 12.076V24.352H101.816V12.112C101.816 10.624 101.576 9.496 101.096 8.728C100.616 7.96 99.7044 7.576 98.3604 7.576C97.6884 7.576 97.1004 7.72 96.5964 8.008C96.1164 8.272 95.7324 8.644 95.4444 9.124L95.2284 7.792H90.5844V24.352ZM90.8724 24.028V8.116H94.9764L95.3364 10.204C95.5284 9.532 95.8884 8.98 96.4164 8.548C96.9444 8.116 97.6044 7.9 98.3964 7.9C99.5964 7.9 100.412 8.26 100.844 8.98C101.276 9.676 101.492 10.72 101.492 12.112V24.028H96.7044V12.184C96.7044 11.848 96.6564 11.632 96.5604 11.536C96.4644 11.44 96.3204 11.392 96.1284 11.392C95.9604 11.392 95.8044 11.428 95.6604 11.5V24.028H90.8724ZM0.324 52V30.724H8.424C10.104 30.724 11.316 31.12 12.06 31.912C12.804 32.704 13.176 33.736 13.176 35.008V38.212C13.176 39.364 13.044 40.432 12.78 41.416C12.516 42.4 12.048 43.192 11.376 43.792C10.728 44.392 9.828 44.692 8.676 44.692H7.308V52H0.324ZM0.972 51.352H6.696V44.008H8.676C9.684 44.008 10.464 43.744 11.016 43.216C11.592 42.688 11.988 41.992 12.204 41.128C12.444 40.24 12.564 39.268 12.564 38.212V35.008C12.564 33.928 12.24 33.052 11.592 32.38C10.944 31.708 9.888 31.372 8.424 31.372H0.972V51.352ZM1.26 51.028V31.696H8.424C9.792 31.696 10.776 32.008 11.376 32.632C11.976 33.232 12.276 34.024 12.276 35.008V38.212C12.276 39.196 12.168 40.108 11.952 40.948C11.736 41.764 11.364 42.424 10.836 42.928C10.332 43.432 9.612 43.684 8.676 43.684H6.372V51.028H1.26ZM6.372 40.876H6.696C6.96 40.876 7.14 40.708 7.236 40.372C7.332 40.012 7.38 39.352 7.38 38.392V36.34C7.38 35.5 7.332 34.972 7.236 34.756C7.14 34.54 6.96 34.432 6.696 34.432H6.372V40.876ZM6.66 40.552V34.792H6.804C6.924 34.792 6.996 34.912 7.02 35.152C7.068 35.368 7.092 35.896 7.092 36.736V38.392C7.092 39.304 7.056 39.892 6.984 40.156C6.912 40.42 6.852 40.552 6.804 40.552H6.66ZM16.0945 52V36.304H13.5025V30.724H25.3465V36.304H22.7905V52H16.0945ZM16.7065 51.352H22.1785V35.656H24.7705V31.372H14.1145V35.656H16.7065V51.352ZM17.0305 51.028V35.332H14.4385V31.696H24.4465V35.332H21.8545V51.028H17.0305ZM24.9618 52L27.9138 30.724H36.9138L39.7938 52H24.9618ZM25.6818 51.352H31.7658L31.9818 48.544H32.5218L32.8098 51.352H39.0738L36.3738 31.372H28.4538L25.6818 51.352ZM26.0418 51.028L28.7058 31.696H36.0858L38.6778 51.028H33.0618L32.8098 48.22H31.6578L31.4778 51.028H26.0418ZM31.6938 45.7H32.8098L32.2698 35.8L31.6938 45.7ZM32.0178 45.376L32.2698 41.524L32.5218 45.376H32.0178ZM46.636 52.36C45.172 52.36 43.948 52.168 42.964 51.784C42.004 51.376 41.284 50.668 40.804 49.66C40.324 48.628 40.084 47.176 40.084 45.304V35.692C40.084 33.748 40.684 32.368 41.884 31.552C43.084 30.712 44.668 30.292 46.636 30.292C48.604 30.292 50.14 30.7 51.244 31.516C52.372 32.332 52.936 33.724 52.936 35.692V41.164H47.068V41.812H52.936V45.268C52.936 47.164 52.708 48.628 52.252 49.66C51.82 50.668 51.136 51.376 50.2 51.784C49.288 52.168 48.1 52.36 46.636 52.36ZM46.636 51.712C47.956 51.712 49.024 51.532 49.84 51.172C50.68 50.812 51.304 50.164 51.712 49.228C52.12 48.292 52.324 46.972 52.324 45.268V42.46H46.816V47.824C46.816 48.016 46.744 48.112 46.6 48.112C46.48 48.112 46.42 48.016 46.42 47.824V35.44C46.42 35.008 46.492 34.792 46.636 34.792C46.756 34.792 46.816 35.008 46.816 35.44V40.516H52.324V35.692C52.324 33.964 51.82 32.74 50.812 32.02C49.804 31.3 48.412 30.94 46.636 30.94C44.86 30.94 43.42 31.3 42.316 32.02C41.236 32.74 40.696 33.964 40.696 35.692V45.304C40.696 46.984 40.912 48.292 41.344 49.228C41.8 50.164 42.46 50.812 43.324 51.172C44.212 51.532 45.316 51.712 46.636 51.712ZM46.636 51.388C45.364 51.388 44.308 51.22 43.468 50.884C42.652 50.548 42.04 49.936 41.632 49.048C41.224 48.16 41.02 46.912 41.02 45.304V35.692C41.02 34.084 41.524 32.944 42.532 32.272C43.564 31.6 44.932 31.264 46.636 31.264C48.316 31.264 49.624 31.6 50.56 32.272C51.52 32.92 52 34.06 52 35.692V40.192H47.104V35.44C47.104 35.176 47.068 34.948 46.996 34.756C46.948 34.564 46.828 34.468 46.636 34.468C46.42 34.468 46.276 34.564 46.204 34.756C46.156 34.948 46.132 35.176 46.132 35.44V47.788C46.132 47.908 46.168 48.04 46.24 48.184C46.312 48.304 46.432 48.364 46.6 48.364C46.792 48.364 46.924 48.304 46.996 48.184C47.068 48.04 47.104 47.908 47.104 47.788V42.784H52V45.268C52 46.876 51.808 48.124 51.424 49.012C51.064 49.9 50.488 50.524 49.696 50.884C48.928 51.22 47.908 51.388 46.636 51.388ZM65.3383 52.252C63.8023 52.252 62.5543 52.048 61.5943 51.64C60.6343 51.232 59.9143 50.548 59.4343 49.588C58.9783 48.604 58.7503 47.236 58.7503 45.484V43.972H62.9263C61.8943 43.588 61.0783 43.132 60.4783 42.604C59.9023 42.052 59.4943 41.356 59.2543 40.516C59.0143 39.652 58.8943 38.548 58.8943 37.204C58.8943 35.548 59.0983 34.24 59.5063 33.28C59.9143 32.32 60.5983 31.636 61.5583 31.228C62.5183 30.82 63.8383 30.616 65.5183 30.616C69.9103 30.616 72.1063 32.512 72.1063 36.304V39.472H69.3703C70.1143 39.856 70.6903 40.288 71.0983 40.768C71.5303 41.248 71.8423 41.86 72.0343 42.604C72.2263 43.324 72.3223 44.26 72.3223 45.412C72.3223 47.884 71.7223 49.648 70.5223 50.704C69.3223 51.736 67.5943 52.252 65.3383 52.252ZM65.3383 51.604C67.3783 51.604 68.9503 51.136 70.0543 50.2C71.1583 49.264 71.7103 47.668 71.7103 45.412C71.7103 44.116 71.6023 43.12 71.3863 42.424C71.1703 41.728 70.7623 41.176 70.1623 40.768C69.5623 40.336 68.6863 39.904 67.5343 39.472C67.1503 39.328 66.8623 39.208 66.6703 39.112C66.4783 39.016 66.3103 38.92 66.1663 38.824H71.4943V36.304C71.4943 32.944 69.5023 31.264 65.5183 31.264C64.0063 31.264 62.8183 31.456 61.9543 31.84C61.0903 32.224 60.4663 32.848 60.0823 33.712C59.7223 34.576 59.5423 35.74 59.5423 37.204C59.5423 38.74 59.7583 39.988 60.1903 40.948C60.6223 41.908 61.4623 42.676 62.7103 43.252C63.2623 43.516 63.7183 43.744 64.0783 43.936C64.4623 44.128 64.7863 44.332 65.0503 44.548H59.3623V45.484C59.3623 47.812 59.8303 49.42 60.7663 50.308C61.7263 51.172 63.2503 51.604 65.3383 51.604ZM65.3383 51.28C63.3703 51.28 61.9303 50.872 61.0183 50.056C60.1303 49.24 59.6863 47.716 59.6863 45.484V44.872H64.8703V46.78C64.8703 47.404 64.9183 47.824 65.0143 48.04C65.1343 48.256 65.3023 48.364 65.5183 48.364C65.7583 48.364 65.9143 48.232 65.9863 47.968C66.0823 47.704 66.1303 47.236 66.1303 46.564C66.1303 45.844 66.0103 45.292 65.7703 44.908C65.5543 44.524 65.2063 44.2 64.7263 43.936C64.2463 43.648 63.6103 43.324 62.8183 42.964C61.6423 42.412 60.8503 41.692 60.4423 40.804C60.0343 39.892 59.8303 38.692 59.8303 37.204C59.8303 35.812 59.9983 34.708 60.3343 33.892C60.6943 33.076 61.2823 32.5 62.0983 32.164C62.9383 31.804 64.0783 31.624 65.5183 31.624C69.2863 31.624 71.1703 33.184 71.1703 36.304V38.5H66.2383V37.96C66.2383 37.504 66.2263 37.12 66.2023 36.808C66.2023 36.472 66.1903 36.184 66.1663 35.944C66.1423 35.488 65.9503 35.26 65.5903 35.26C65.4223 35.26 65.2783 35.356 65.1583 35.548C65.0383 35.74 64.9783 36.172 64.9783 36.844C64.9783 37.54 65.0743 38.056 65.2663 38.392C65.4823 38.728 65.7823 38.98 66.1663 39.148C66.5503 39.316 66.9943 39.508 67.4983 39.724C68.4823 40.108 69.2503 40.504 69.8023 40.912C70.3783 41.32 70.7863 41.872 71.0263 42.568C71.2663 43.24 71.3863 44.188 71.3863 45.412C71.3863 47.548 70.8583 49.06 69.8023 49.948C68.7463 50.836 67.2583 51.28 65.3383 51.28ZM65.9143 38.644C65.7223 38.476 65.5663 38.26 65.4463 37.996C65.3263 37.732 65.2663 37.348 65.2663 36.844C65.2663 36.34 65.2903 36.004 65.3383 35.836C65.4103 35.668 65.4943 35.584 65.5903 35.584C65.7343 35.584 65.8303 35.788 65.8783 36.196C65.9023 36.388 65.9143 36.64 65.9143 36.952C65.9143 37.24 65.9143 37.576 65.9143 37.96V38.644ZM65.5183 48.04C65.3743 48.04 65.2783 47.944 65.2303 47.752C65.2063 47.56 65.1943 47.2 65.1943 46.672V44.62C65.4103 44.86 65.5663 45.136 65.6623 45.448C65.7823 45.76 65.8423 46.168 65.8423 46.672C65.8423 47.224 65.8183 47.596 65.7703 47.788C65.7223 47.956 65.6383 48.04 65.5183 48.04ZM76.5962 52.216C76.0202 52.216 75.4202 52.132 74.7962 51.964C74.1962 51.796 73.6922 51.424 73.2842 50.848C72.8762 50.272 72.6722 49.372 72.6722 48.148V45.556C72.6722 43.732 73.4642 42.436 75.0482 41.668H72.9962V38.608C72.9962 37 73.4042 35.8 74.2202 35.008C75.0362 34.192 76.5602 33.784 78.7922 33.784C80.3282 33.784 81.5522 33.916 82.4642 34.18C83.3762 34.42 84.0362 34.888 84.4442 35.584C84.8522 36.28 85.0562 37.288 85.0562 38.608V52H78.4322V51.856C77.9282 52.096 77.3162 52.216 76.5962 52.216ZM76.5962 51.568C77.2202 51.568 77.7242 51.484 78.1082 51.316C78.4922 51.148 78.8042 50.92 79.0442 50.632V51.352H84.4442V38.608C84.4442 37.432 84.2642 36.556 83.9042 35.98C83.5442 35.38 82.9442 34.972 82.1042 34.756C81.2882 34.54 80.1842 34.432 78.7922 34.432C76.8242 34.432 75.4682 34.78 74.7242 35.476C73.9802 36.148 73.6082 37.192 73.6082 38.608V41.02H78.0722C77.9282 41.116 77.7242 41.212 77.4602 41.308C77.2202 41.38 76.9442 41.476 76.6322 41.596C76.1762 41.764 75.6842 41.992 75.1562 42.28C74.6282 42.544 74.1842 42.928 73.8242 43.432C73.4642 43.936 73.2842 44.644 73.2842 45.556V48.148C73.2842 49.156 73.4522 49.912 73.7882 50.416C74.1482 50.896 74.5802 51.208 75.0842 51.352C75.5882 51.496 76.0922 51.568 76.5962 51.568ZM76.5962 51.244C76.1402 51.244 75.6842 51.184 75.2282 51.064C74.7722 50.92 74.3882 50.632 74.0762 50.2C73.7642 49.744 73.6082 49.06 73.6082 48.148V45.556C73.6082 44.644 73.8002 43.936 74.1842 43.432C74.5922 42.928 75.1202 42.532 75.7682 42.244C76.4162 41.956 77.0882 41.692 77.7842 41.452C78.4082 41.236 78.8042 40.972 78.9722 40.66C79.1642 40.348 79.2602 39.88 79.2602 39.256V38.248C79.2602 37.984 79.2242 37.78 79.1522 37.636C79.1042 37.468 78.9722 37.384 78.7562 37.384C78.5402 37.384 78.3962 37.492 78.3242 37.708C78.2522 37.924 78.2162 38.236 78.2162 38.644V40.696H73.8962V38.608C73.8962 37.336 74.2442 36.376 74.9402 35.728C75.6362 35.08 76.9202 34.756 78.7922 34.756C80.1122 34.756 81.1562 34.864 81.9242 35.08C82.7162 35.272 83.2802 35.644 83.6162 36.196C83.9762 36.748 84.1562 37.552 84.1562 38.608V51.028H79.3682V49.444C79.2482 49.852 78.9722 50.26 78.5402 50.668C78.1322 51.052 77.4842 51.244 76.5962 51.244ZM78.5402 40.732V38.644C78.5402 38.02 78.6122 37.708 78.7562 37.708C78.9002 37.708 78.9722 37.888 78.9722 38.248V39.256C78.9722 39.952 78.8282 40.444 78.5402 40.732ZM78.7562 48.472C79.0442 48.472 79.2002 48.328 79.2242 48.04C79.2482 47.896 79.2602 47.74 79.2602 47.572C79.2602 47.38 79.2602 47.164 79.2602 46.924V43.108C78.9482 43.3 78.6962 43.552 78.5042 43.864C78.3122 44.152 78.2162 44.548 78.2162 45.052V47.14C78.2162 47.5 78.2402 47.812 78.2882 48.076C78.3362 48.34 78.4922 48.472 78.7562 48.472ZM78.7562 48.148C78.6362 48.148 78.5762 48.04 78.5762 47.824L78.5402 47.14V45.052C78.5402 44.5 78.6842 44.068 78.9722 43.756V47.788C78.9722 48.028 78.9002 48.148 78.7562 48.148ZM85.6482 52V29.32H91.2642V52H85.6482ZM86.1522 51.352H90.7602V29.968H86.1522V51.352ZM86.4402 51.028V30.292H90.4722V51.028H86.4402ZM98.062 52.396C96.622 52.396 95.446 52.228 94.534 51.892C93.622 51.532 92.938 50.872 92.482 49.912C92.05 48.952 91.834 47.536 91.834 45.664V39.004C91.834 37.06 92.374 35.716 93.454 34.972C94.534 34.228 96.07 33.856 98.062 33.856C100.054 33.856 101.59 34.228 102.67 34.972C103.75 35.716 104.29 37.06 104.29 39.004V45.664C104.29 47.536 104.062 48.952 103.606 49.912C103.15 50.872 102.466 51.532 101.554 51.892C100.642 52.228 99.478 52.396 98.062 52.396ZM98.062 51.748C99.358 51.748 100.414 51.592 101.23 51.28C102.07 50.968 102.682 50.38 103.066 49.516C103.474 48.628 103.678 47.344 103.678 45.664V44.656H98.278V47.86C98.278 48.124 98.254 48.304 98.206 48.4C98.182 48.472 98.134 48.508 98.062 48.508C97.918 48.508 97.846 48.292 97.846 47.86V43.828H103.678V39.004C103.678 37.276 103.186 36.1 102.202 35.476C101.242 34.828 99.862 34.504 98.062 34.504C96.262 34.504 94.87 34.828 93.886 35.476C92.926 36.1 92.446 37.276 92.446 39.004V45.664C92.446 47.344 92.638 48.628 93.022 49.516C93.43 50.38 94.054 50.968 94.894 51.28C95.734 51.592 96.79 51.748 98.062 51.748ZM98.062 51.424C96.838 51.424 95.83 51.28 95.038 50.992C94.246 50.68 93.658 50.116 93.274 49.3C92.914 48.46 92.734 47.248 92.734 45.664V39.004C92.734 37.396 93.19 36.304 94.102 35.728C95.014 35.128 96.334 34.828 98.062 34.828C99.766 34.828 101.074 35.128 101.986 35.728C102.898 36.304 103.354 37.396 103.354 39.004V43.504H97.522V47.86C97.522 48.244 97.57 48.508 97.666 48.652C97.762 48.772 97.894 48.832 98.062 48.832C98.398 48.832 98.566 48.508 98.566 47.86V44.98H103.354V45.664C103.354 47.248 103.162 48.46 102.778 49.3C102.418 50.116 101.842 50.68 101.05 50.992C100.282 51.28 99.286 51.424 98.062 51.424ZM97.522 41.344H98.566V38.284C98.566 37.684 98.398 37.384 98.062 37.384C97.894 37.384 97.762 37.444 97.666 37.564C97.57 37.684 97.522 37.924 97.522 38.284V41.344ZM97.846 41.02V38.248C97.846 37.888 97.918 37.708 98.062 37.708C98.206 37.708 98.278 37.888 98.278 38.248V41.02H97.846ZM104.703 52V34.18H110.391V35.044C110.943 34.636 111.579 34.372 112.299 34.252C113.043 34.108 113.799 34.132 114.567 34.324V40.084C114.231 40.012 113.919 39.952 113.631 39.904C113.367 39.832 113.043 39.796 112.659 39.796C111.987 39.796 111.555 39.964 111.363 40.3C111.171 40.612 111.075 41.2 111.075 42.064V52H104.703ZM105.279 51.352H110.499V42.064C110.499 40.912 110.655 40.144 110.967 39.76C111.279 39.352 111.843 39.148 112.659 39.148C112.851 39.148 113.067 39.16 113.307 39.184C113.571 39.208 113.799 39.244 113.991 39.292V34.828C113.199 34.636 112.443 34.672 111.723 34.936C111.003 35.2 110.439 35.644 110.031 36.268L109.779 34.792H105.279V51.352ZM105.603 51.028V35.116H109.527L109.887 37.168C110.175 36.328 110.679 35.728 111.399 35.368C112.119 35.008 112.875 34.912 113.667 35.08V38.932C113.499 38.908 113.331 38.896 113.163 38.896C112.995 38.872 112.827 38.86 112.659 38.86C111.747 38.86 111.111 39.088 110.751 39.544C110.391 39.976 110.211 40.816 110.211 42.064V51.028H105.603ZM120.845 52.468C118.445 52.468 116.777 51.988 115.841 51.028C114.929 50.044 114.473 48.496 114.473 46.384V44.332H116.993C116.417 43.948 115.913 43.444 115.481 42.82C115.073 42.196 114.869 41.332 114.869 40.228V39.328C114.869 37.36 115.349 35.944 116.309 35.08C117.269 34.216 118.913 33.784 121.241 33.784C123.593 33.784 125.201 34.252 126.065 35.188C126.929 36.1 127.361 37.588 127.361 39.652V41.632H125.201C125.825 41.992 126.341 42.472 126.749 43.072C127.157 43.672 127.361 44.5 127.361 45.556V46.708C127.361 48.748 126.869 50.224 125.885 51.136C124.925 52.024 123.245 52.468 120.845 52.468ZM120.845 51.82C122.981 51.82 124.493 51.424 125.381 50.632C126.293 49.816 126.749 48.508 126.749 46.708V45.556C126.749 44.428 126.449 43.552 125.849 42.928C125.249 42.28 124.493 41.824 123.581 41.56L122.969 41.38C122.777 41.332 122.585 41.284 122.393 41.236C122.225 41.164 122.069 41.08 121.925 40.984H126.749V39.652C126.749 37.804 126.353 36.472 125.561 35.656C124.769 34.816 123.329 34.396 121.241 34.396C119.129 34.396 117.641 34.78 116.777 35.548C115.913 36.316 115.481 37.576 115.481 39.328V40.228C115.481 41.428 115.817 42.364 116.489 43.036C117.185 43.684 117.977 44.164 118.865 44.476C118.985 44.524 119.177 44.608 119.441 44.728C119.705 44.848 119.885 44.932 119.981 44.98H115.085V46.384C115.085 48.28 115.493 49.66 116.309 50.524C117.149 51.388 118.661 51.82 120.845 51.82ZM120.845 51.496C118.781 51.496 117.353 51.088 116.561 50.272C115.793 49.432 115.409 48.136 115.409 46.384V45.304H120.233V47.752C120.233 48.16 120.281 48.448 120.377 48.616C120.473 48.76 120.605 48.832 120.773 48.832C120.965 48.832 121.097 48.748 121.169 48.58C121.241 48.412 121.277 48.208 121.277 47.968V46.492C121.277 45.724 121.025 45.208 120.521 44.944C120.041 44.656 119.441 44.368 118.721 44.08C117.953 43.744 117.269 43.3 116.669 42.748C116.093 42.196 115.805 41.356 115.805 40.228V39.328C115.805 37.696 116.213 36.52 117.029 35.8C117.869 35.08 119.273 34.72 121.241 34.72C123.209 34.72 124.565 35.116 125.309 35.908C126.053 36.676 126.425 37.924 126.425 39.652V40.66H121.781V38.248C121.781 37.672 121.613 37.384 121.277 37.384C121.109 37.384 120.977 37.444 120.881 37.564C120.785 37.66 120.737 37.876 120.737 38.212V39.724C120.737 40.252 120.929 40.672 121.313 40.984C121.697 41.272 122.417 41.584 123.473 41.92C124.313 42.184 125.009 42.592 125.561 43.144C126.137 43.672 126.425 44.476 126.425 45.556V46.708C126.425 48.388 126.005 49.612 125.165 50.38C124.325 51.124 122.885 51.496 120.845 51.496ZM121.493 40.696C121.205 40.48 121.061 40.156 121.061 39.724V38.212C121.061 37.876 121.133 37.708 121.277 37.708C121.421 37.708 121.493 37.876 121.493 38.212V40.696ZM120.773 48.508C120.701 48.508 120.641 48.472 120.593 48.4C120.569 48.304 120.557 48.136 120.557 47.896V45.304C120.845 45.592 120.989 45.988 120.989 46.492V47.968C120.989 48.328 120.917 48.508 120.773 48.508Z" fill="#3D7E71"/>
</svg>
